HIERARCHY
ROOT Pelvis
{
	OFFSET 0.000000 0.941512 0.000000
	CHANNELS 6 Xposition Yposition Zposition Zrotation Yrotation Xrotation 
	JOINT Pelvis_L_Hip
	{
		OFFSET 0.000000 0.000000 0.000000
		CHANNELS 3 Zrotation Yrotation Xrotation
		JOINT L_Hip
		{
			OFFSET 0.062321 -0.080322 -0.016990
			CHANNELS 3 Zrotation Yrotation Xrotation
			JOINT L_Knee
			{
				OFFSET 0.093051 -0.381305 -0.029784
				CHANNELS 3 Zrotation Yrotation Xrotation
				JOINT L_Ankle
				{
					OFFSET -0.010371 -0.431000 -0.033614
					CHANNELS 3 Zrotation Yrotation Xrotation
					End Site #name: L_Foot
					{
						OFFSET 0.069299 -0.038670 0.119418
					}
				}
			}
		}
	}
	JOINT Pelvis_R_Hip
	{
		OFFSET 0.000000 0.000000 0.000000
		CHANNELS 3 Zrotation Yrotation Xrotation
		JOINT R_Hip
		{
			OFFSET -0.055334 -0.094904 -0.002373
			CHANNELS 3 Zrotation Yrotation Xrotation
			JOINT R_Knee
			{
				OFFSET -0.064207 -0.384370 -0.019592
				CHANNELS 3 Zrotation Yrotation Xrotation
				JOINT R_Ankle
				{
					OFFSET 0.025418 -0.419734 -0.065953
					CHANNELS 3 Zrotation Yrotation Xrotation
					End Site #name: R_Foot
					{
						OFFSET -0.057233 -0.039888 0.132134
					}
				}
			}
		}
	}
	JOINT Pelvis_Spine1
	{
		OFFSET 0.000000 0.000000 0.000000
		CHANNELS 3 Zrotation Yrotation Xrotation
		JOINT Spine1
		{
			OFFSET -0.005562 0.124093 -0.043360
			CHANNELS 3 Zrotation Yrotation Xrotation
			JOINT Spine2
			{
				OFFSET 0.012244 0.139499 0.029894
				CHANNELS 3 Zrotation Yrotation Xrotation
				JOINT Spine3
				{
					OFFSET -0.002556 0.056561 0.009225
					CHANNELS 3 Zrotation Yrotation Xrotation
					JOINT Spine3_Neck
					{
						OFFSET 0.000000 0.000000 0.000000
						CHANNELS 3 Zrotation Yrotation Xrotation
						JOINT Neck
						{
							OFFSET -0.005205 0.217920 -0.024551
							CHANNELS 3 Zrotation Yrotation Xrotation
							End Site #name: Head
							{
								OFFSET 0.002365 0.091850 0.046637
							}
						}
					}
					JOINT Spine3_L_Collar
					{
						OFFSET 0.000000 0.000000 0.000000
						CHANNELS 3 Zrotation Yrotation Xrotation
						JOINT L_Collar
						{
							OFFSET 0.072225 0.116603 -0.009480
							CHANNELS 3 Zrotation Yrotation Xrotation
							JOINT L_Shoulder
							{
								OFFSET 0.115937 -0.058643 -0.021018
								CHANNELS 3 Zrotation Yrotation Xrotation
								JOINT L_Elbow
								{
									OFFSET 0.021994 -0.254722 -0.024492
									CHANNELS 3 Zrotation Yrotation Xrotation
									End Site #name: L_Wrist
									{
										OFFSET 0.048810 -0.240214 0.103329
									}
								}
							}
						}
					}
					JOINT Spine3_R_Collar
					{
						OFFSET 0.000000 0.000000 0.000000
						CHANNELS 3 Zrotation Yrotation Xrotation
						JOINT R_Collar
						{
							OFFSET -0.073372 0.120704 -0.024611
							CHANNELS 3 Zrotation Yrotation Xrotation
							JOINT R_Shoulder
							{
								OFFSET -0.108089 -0.054969 -0.020504
								CHANNELS 3 Zrotation Yrotation Xrotation
								JOINT R_Elbow
								{
									OFFSET -0.033684 -0.260739 0.009889
									CHANNELS 3 Zrotation Yrotation Xrotation
									End Site #name: R_Wrist
									{
										OFFSET -0.067980 -0.232763 0.118463
									}
								}
							}
						}
					}
				}
			}
		}
	}
}
MOTION
Frames: 17
Frame Time: 0.041667
-0.023084 0.940616 0.026909 -6.171515 -1.257035 -7.127748 0.000000 0.000000 0.000000 -0.663101 -2.020347 -8.308823 5.403656 -3.209959 36.273862 4.552098 -13.061092 -13.268228 0.000000 0.000000 0.000000 -12.167213 4.088664 -54.164356 16.303397 -17.179028 102.512621 7.098592 -7.294363 23.223045 0.000000 0.000000 0.000000 3.295632 -2.242056 12.933447 1.179765 -0.407921 -6.321354 3.607427 -0.610569 7.844569 0.000000 0.000000 0.000000 -3.402379 1.582383 -13.426659 0.000000 0.000000 0.000000 27.421338 -9.050835 -2.187860 -15.836049 1.001138 -3.349967 -5.152209 -35.518832 -75.966298 0.000000 0.000000 0.000000 -27.271419 3.878290 2.901049 24.993339 -5.240346 16.253729 -8.112784 35.916049 -87.503633 
-0.026032 0.932777 0.018710 -6.352079 -1.032971 -6.851860 0.000000 0.000000 0.000000 0.477379 -2.470622 -10.248221 3.749653 -2.683536 38.234654 5.400255 -11.737420 -14.161000 0.000000 0.000000 0.000000 -12.304634 4.066905 -55.346130 16.536591 -17.863957 102.923620 4.507023 -9.977950 20.394053 0.000000 0.000000 0.000000 2.913268 -2.148948 13.109175 1.221929 -0.404869 -6.076537 4.218231 0.232733 7.407500 0.000000 0.000000 0.000000 -3.151575 1.514814 -13.029087 0.000000 0.000000 0.000000 26.419580 -9.425876 -2.450117 -14.794156 -0.457309 -9.667825 0.376883 -31.681212 -83.782104 0.000000 0.000000 0.000000 -26.834110 3.827474 2.685109 23.655384 -6.781702 21.163424 -9.190355 33.663765 -88.032628 
-0.034048 0.967122 0.018009 -6.173151 -0.542960 -3.927905 0.000000 0.000000 0.000000 0.449996 -2.049759 -8.494935 5.735574 -2.599634 27.392801 -1.546504 -13.830093 -4.015582 0.000000 0.000000 0.000000 -9.105514 4.999211 -50.231313 15.980866 -14.006871 91.016285 6.183809 -9.915522 24.319395 0.000000 0.000000 0.000000 3.186136 -1.741067 8.865607 0.445690 -0.355489 -6.914776 4.216585 -0.489292 7.246900 0.000000 0.000000 0.000000 -3.228077 1.542063 -11.753153 0.000000 0.000000 0.000000 26.893193 -8.239375 -1.474206 -17.499565 -0.096265 -8.423495 1.758769 -32.877266 -88.292489 0.000000 0.000000 0.000000 -27.952085 2.427045 4.229864 23.164532 -7.106524 22.328915 -6.559621 36.651721 -84.866581 
-0.045896 1.019448 0.018735 -5.824628 0.471899 -1.255328 0.000000 0.000000 0.000000 1.513863 -2.335954 -9.765493 4.691568 -1.771132 20.488547 -14.052545 -8.266657 17.114196 0.000000 0.000000 0.000000 -3.375727 5.643693 -39.417708 11.637778 -6.253781 70.584056 12.620510 -5.580048 32.855637 0.000000 0.000000 0.000000 3.079493 -1.182036 4.333662 -0.171744 -0.299804 -6.980676 4.222729 -0.639416 6.721634 0.000000 0.000000 0.000000 -4.645614 2.139022 -10.778528 0.000000 0.000000 0.000000 28.625230 -8.041185 -1.020323 -21.783167 1.124266 -4.571272 0.516793 -36.506254 -88.906294 0.000000 0.000000 0.000000 -30.526390 2.181605 4.950025 26.082862 -7.887134 22.961910 -3.727241 37.687155 -79.912419 
-0.058658 1.054842 0.016252 -5.341163 1.258442 -0.411180 0.000000 0.000000 0.000000 3.893529 -4.012864 -17.921832 -1.677638 -0.298559 30.550971 -13.989628 6.553563 27.071064 0.000000 0.000000 0.000000 2.766934 5.031494 -26.927351 4.468728 0.048399 48.423580 16.643157 -0.382526 34.766598 0.000000 0.000000 0.000000 2.688067 -0.816597 2.033941 -0.729606 -0.225124 -6.565018 4.286791 0.914811 7.295190 0.000000 0.000000 0.000000 -6.367903 2.876323 -11.142604 0.000000 0.000000 0.000000 30.165972 -7.540506 0.055909 -24.651461 1.283069 -4.859080 -1.654602 -40.000759 -87.507445 0.000000 0.000000 0.000000 -33.505427 3.821087 3.592635 30.755197 -9.086308 23.607613 -3.004007 36.062781 -76.813041 
-0.071898 1.053565 0.007779 -5.048039 2.606815 -0.977700 0.000000 0.000000 0.000000 8.803431 -5.893999 -30.830959 -13.231437 6.100048 55.978972 -4.606468 18.438424 23.019765 0.000000 0.000000 0.000000 7.588908 2.977907 -14.268120 -2.456477 2.624027 28.348876 14.970134 -0.168092 31.982811 0.000000 0.000000 0.000000 1.507603 -0.642095 2.947353 -0.450075 -0.306535 -7.435273 4.570570 3.086730 8.331610 0.000000 0.000000 0.000000 -6.268733 2.892628 -11.741216 0.000000 0.000000 0.000000 29.599065 -6.759925 1.325266 -24.904540 0.755361 -6.823671 -2.803146 -42.751507 -87.746323 0.000000 0.000000 0.000000 -34.886954 5.786486 1.138541 32.034401 -9.797100 24.697450 -4.690023 34.223573 -78.430130 
-0.084108 1.020045 -0.004436 -3.471356 3.657596 -1.192750 0.000000 0.000000 0.000000 14.209028 -6.974932 -45.193938 -24.321442 18.980949 77.780761 -1.075614 21.492876 20.141632 0.000000 0.000000 0.000000 8.417047 0.824238 -5.067073 -5.577996 2.728881 17.294614 12.110982 3.365926 23.412347 0.000000 0.000000 0.000000 -1.128212 -0.105595 3.986350 -0.148797 -0.340094 -7.402434 4.717258 5.061341 8.284894 0.000000 0.000000 0.000000 -5.318649 2.562715 -12.357557 0.000000 0.000000 0.000000 26.500435 -6.065205 1.827594 -22.145881 0.437785 -7.267245 -2.087726 -43.593598 -89.930580 0.000000 0.000000 0.000000 -33.353226 8.151689 -1.959677 28.857613 -9.338647 25.367174 -7.301631 31.832661 -81.882107 
-0.093783 0.967210 -0.019160 -2.696725 1.935210 -2.432948 0.000000 0.000000 0.000000 21.342033 -5.216360 -56.163140 -32.888084 34.426059 90.495298 2.227384 24.007990 16.429789 0.000000 0.000000 0.000000 7.201448 0.230708 -2.446246 -3.855006 2.276247 17.724194 3.335358 7.648939 2.266294 0.000000 0.000000 0.000000 -1.774529 -0.169534 6.974241 -0.397472 -0.284743 -7.002537 4.861200 7.356588 7.719227 0.000000 0.000000 0.000000 -5.436575 2.588345 -13.732988 0.000000 0.000000 0.000000 21.683085 -3.835052 2.704101 -18.448433 0.229415 -6.991878 -1.435123 -42.567947 -90.310414 0.000000 0.000000 0.000000 -31.468977 12.208974 -6.119980 23.172686 -7.320476 23.170525 -9.467151 28.754353 -84.156110 
-0.100530 0.923094 -0.036303 -2.854496 -1.311425 -4.037060 0.000000 0.000000 0.000000 27.236987 -1.824066 -62.180915 -37.747364 44.543415 95.834737 4.759940 26.442722 13.820135 0.000000 0.000000 0.000000 8.626388 1.311568 -6.941289 -3.072243 3.232499 28.528313 -3.304836 4.332494 -9.983571 0.000000 0.000000 0.000000 -1.128149 -0.600982 10.828089 -1.476469 -0.144247 -6.724498 5.177926 7.970058 7.215794 0.000000 0.000000 0.000000 -4.858138 2.298732 -15.179812 0.000000 0.000000 0.000000 19.715557 -1.442931 3.800658 -18.226533 0.818637 -4.465888 -2.162463 -40.619121 -87.106260 0.000000 0.000000 0.000000 -31.761437 16.161372 -9.588698 17.633004 -3.760414 14.756645 -9.514322 27.150891 -82.825638 
-0.102033 0.917666 -0.042861 -1.955873 0.431188 -4.283613 0.000000 0.000000 0.000000 25.523568 -3.297918 -64.869379 -35.754155 43.088625 97.768111 3.249607 23.508769 13.395248 0.000000 0.000000 0.000000 8.368025 1.868517 -9.244026 -3.142935 3.533266 32.601556 -3.287760 1.495867 -8.643987 0.000000 0.000000 0.000000 -1.819289 -0.454790 11.184137 -1.829508 -0.030686 -5.357240 4.534741 6.084443 6.804379 0.000000 0.000000 0.000000 -3.370540 1.738393 -16.178996 0.000000 0.000000 0.000000 19.678897 -3.857571 1.897221 -16.865257 2.218636 1.823236 -1.348428 -38.432730 -86.741496 0.000000 0.000000 0.000000 -31.944264 16.105158 -9.409924 15.958289 -1.680434 7.888856 -11.213742 25.670213 -85.724863 
-0.099546 0.951842 -0.037607 -0.950924 2.219307 -1.540004 0.000000 0.000000 0.000000 20.447142 -6.088615 -61.074081 -31.439022 33.606910 91.747455 -0.332351 19.199447 15.951494 0.000000 0.000000 0.000000 7.798161 1.165476 -6.495810 -6.038778 3.421399 21.544873 0.829236 3.520922 -0.482862 0.000000 0.000000 0.000000 -3.201596 0.208801 7.210277 -1.120302 -0.199561 -6.790045 4.165499 6.624806 7.211890 0.000000 0.000000 0.000000 -3.156993 1.722882 -14.972396 0.000000 0.000000 0.000000 21.265194 -3.819081 2.528664 -15.048719 2.154941 2.507627 -7.709801 -42.698281 -78.575890 0.000000 0.000000 0.000000 -31.888384 13.585204 -7.319436 18.985579 -2.311072 9.544773 -12.377067 27.561738 -90.459576 
-0.091544 1.003584 -0.028394 -0.575311 0.969437 1.174867 0.000000 0.000000 0.000000 13.396001 -7.437469 -49.697525 -24.213738 20.137214 77.667087 -5.480465 14.712941 20.906472 0.000000 0.000000 0.000000 5.162703 1.207646 -6.923138 -5.088322 2.356219 14.450543 9.906135 4.820946 17.308616 0.000000 0.000000 0.000000 -2.632439 0.383562 2.771286 -1.898341 -0.153525 -7.424677 4.233136 7.780143 6.705698 0.000000 0.000000 0.000000 -4.456123 2.216491 -13.324265 0.000000 0.000000 0.000000 22.916238 -2.288299 4.169961 -14.925070 2.187980 2.704630 -15.904980 -45.032334 -67.021121 0.000000 0.000000 0.000000 -32.641173 13.751287 -7.528486 23.582437 -4.323889 14.614861 -11.714416 31.201432 -91.715045 
-0.083349 1.046535 -0.019584 -2.186583 -0.452057 1.339320 0.000000 0.000000 0.000000 7.410621 -6.681933 -34.860127 -13.385974 7.426017 58.446562 -13.499567 8.796650 28.617310 0.000000 0.000000 0.000000 4.101491 2.044644 -11.060254 -2.794724 2.035698 17.908398 16.597168 2.126260 31.773941 0.000000 0.000000 0.000000 -0.689611 0.021200 1.561982 -2.070473 -0.114660 -7.183401 4.922867 6.466740 6.157922 0.000000 0.000000 0.000000 -5.267003 2.488889 -12.004711 0.000000 0.000000 0.000000 24.219663 -2.352782 4.061279 -18.312980 3.681399 6.724908 -19.403420 -43.369808 -59.588589 0.000000 0.000000 0.000000 -33.024766 13.149340 -6.400538 25.908281 -4.334483 13.965211 -8.170349 36.523111 -87.915093 
-0.075777 1.059490 -0.017506 -3.659266 -0.937776 0.908843 0.000000 0.000000 0.000000 3.128923 -5.058768 -22.731763 -4.048706 0.942443 41.773841 -18.152736 -3.197659 26.254415 0.000000 0.000000 0.000000 3.229408 3.723455 -19.623507 0.258324 2.268303 35.315380 14.095037 -1.656098 31.040431 0.000000 0.000000 0.000000 0.306952 -0.231111 1.798810 -1.167288 -0.182933 -6.834443 4.974960 3.670982 6.267742 0.000000 0.000000 0.000000 -4.535720 2.133020 -12.117896 0.000000 0.000000 0.000000 26.134971 -4.060809 2.555810 -22.477635 5.563332 10.460293 -19.412239 -41.135053 -56.875410 0.000000 0.000000 0.000000 -32.570936 11.122663 -3.749377 27.075315 -3.552187 11.464606 -4.754297 40.808339 -84.434209 
-0.066305 1.039325 -0.020668 -5.529606 -1.264856 -0.752980 0.000000 0.000000 0.000000 1.104325 -3.012282 -12.711426 2.299276 -1.604440 31.982656 -18.973204 -7.174998 24.847353 0.000000 0.000000 0.000000 0.794184 5.199146 -29.261834 6.667680 -0.797811 58.564037 14.005362 1.512217 27.718039 0.000000 0.000000 0.000000 2.766959 -1.058492 4.045613 -0.599185 -0.186559 -5.728675 4.551000 2.222439 6.332717 0.000000 0.000000 0.000000 -4.504222 2.056749 -13.375772 0.000000 0.000000 0.000000 26.213164 -5.653711 0.963689 -22.733268 5.480133 9.985240 -18.647377 -40.290690 -57.047837 0.000000 0.000000 0.000000 -30.856910 9.698628 -2.211261 27.165155 -3.920511 12.321636 -5.765526 40.891323 -86.451492 
-0.057520 0.991168 -0.025911 -6.543090 -1.221674 -2.796532 0.000000 0.000000 0.000000 -0.076154 -1.386959 -5.753200 4.287187 -2.212894 29.488411 -4.957616 -12.866339 1.563076 0.000000 0.000000 0.000000 -4.112184 5.668037 -39.977394 12.988369 -8.151895 81.064884 10.823284 -0.705786 23.881518 0.000000 0.000000 0.000000 3.750116 -1.770830 7.817912 0.543440 -0.324854 -5.980369 4.132184 1.526877 6.388671 0.000000 0.000000 0.000000 -4.037195 1.868829 -13.338046 0.000000 0.000000 0.000000 25.165455 -7.423593 -0.756391 -20.305947 4.348970 7.752782 -15.981526 -40.403421 -61.569312 0.000000 0.000000 0.000000 -28.355887 8.871983 -1.641933 26.445150 -5.199976 15.842874 -7.752827 38.340648 -88.499928 
-0.054287 0.943140 -0.033731 -6.310254 0.129155 -4.527964 0.000000 0.000000 0.000000 -0.554013 -1.864876 -7.719607 3.553139 -2.597706 37.075816 4.259855 -11.445329 -12.157562 0.000000 0.000000 0.000000 -9.514386 4.583247 -49.072171 15.387446 -14.748550 96.253419 8.692482 -1.374723 20.184438 0.000000 0.000000 0.000000 2.028970 -1.805501 12.257298 1.782812 -0.500553 -7.087142 4.089631 0.742619 7.014135 0.000000 0.000000 0.000000 -2.712231 1.364957 -15.067896 0.000000 0.000000 0.000000 24.923195 -8.552979 -1.683148 -17.602953 2.325177 1.568226 -10.990266 -41.168424 -71.126067 0.000000 0.000000 0.000000 -25.299924 5.615926 0.706253 24.323985 -5.253401 16.648934 -6.851421 36.197222 -85.047826 
